<?xml version="1.0" encoding="UTF-8" standalone="no"?>
<!-- Created with Inkscape (http://www.inkscape.org/) -->

<svg
   id="svg2"
   sodipodi:docname="avocet.svg"
   inkscape:export-filename="C:\joanna\Gfx\drawings_vector\work_in_progress\animals\Avocet_.png"
   viewBox="0 0 198.5043 186.28269"
   sodipodi:version="0.32"
   inkscape:export-xdpi="36.285751"
   version="1.0"
   inkscape:output_extension="org.inkscape.output.svg.inkscape"
   inkscape:export-ydpi="36.285751"
   inkscape:version="1.1.1 (3bf5ae0d25, 2021-09-20)"
   width="198.5043"
   height="186.28268"
   xmlns:inkscape="http://www.inkscape.org/namespaces/inkscape"
   xmlns:sodipodi="http://sodipodi.sourceforge.net/DTD/sodipodi-0.dtd"
   xmlns="http://www.w3.org/2000/svg"
   xmlns:svg="http://www.w3.org/2000/svg"
   xmlns:rdf="http://www.w3.org/1999/02/22-rdf-syntax-ns#"
   xmlns:cc="http://creativecommons.org/ns#"
   xmlns:dc="http://purl.org/dc/elements/1.1/">
  <defs
     id="defs7" />
  <sodipodi:namedview
     id="base"
     bordercolor="#666666"
     height="500px"
     inkscape:pageshadow="2"
     guidetolerance="10.0"
     pagecolor="#ffffff"
     gridtolerance="10.0"
     inkscape:zoom="3.413074"
     objecttolerance="10.0"
     borderopacity="1.0"
     inkscape:current-layer="svg2"
     inkscape:cx="98.591475"
     inkscape:cy="77.935609"
     inkscape:window-y="32"
     inkscape:window-x="0"
     inkscape:window-height="1011"
     showgrid="false"
     inkscape:pageopacity="0.0"
     inkscape:window-width="1920"
     inkscape:pagecheckerboard="1"
     inkscape:window-maximized="1" />
  <path
     id="path959"
     style="fill:#000000;fill-opacity:1"
     d="m 104.00254,186.28269 c -0.50053,-1.86584 -0.93556,-3.7424 -1.3029,-5.62484 -0.89,-4.56 -0.51,-25.73 0.55,-30.61 0.54,-2.5 1.34,-6.33 1.77,-8.5 1.49,-7.51 4.05,-14.27 10.01,-26.47 5.23,-10.7 17,-29.627 22.76,-36.588 1,-1.216 3.31,-5.2 5.12,-8.853 3,-6.071 3.2,-6.846 2.31,-8.994 -0.53,-1.293 -1.49,-2.552 -2.13,-2.797 -0.64,-0.246 -0.95,-0.8 -0.68,-1.233 0.27,-0.443 -0.01,-0.594 -0.66,-0.347 -0.63,0.242 -1.36,0.084 -1.63,-0.35 -0.27,-0.435 -3.78,-1.55 -7.79,-2.477 l -7.3,-1.687 -7.5,3.128 c -17.634996,7.347 -37.571996,16.076 -39.834996,17.44 -1.344,0.809 -3.865,1.916 -5.604,2.459 -1.738,0.544 -4.05,1.471 -5.136,2.061 -4.358,2.366 -25.231,8.853 -36.35,11.296 -27.7750134,6.104 -29.90901338,6.408 -30.57801338,4.363 -0.58916,-1.798 8.62339998,-4.983 25.04601338,-8.659 4.998,-1.119 12.466,-3.318 16.595,-4.886 12.876,-4.891 33.399,-15.582 49.738,-25.912 2.062,-1.304 8.823996,-5.559 15.023996,-9.456 6.21,-3.898 12.09,-8.165 13.08,-9.483 0.99,-1.318 2.69,-4.886 3.78,-7.928 2.74,-7.657 3.77,-9.879 5.95,-12.826 2.45,-3.3121 8.66,-7.7474005 15.03,-10.7260005 12.22,-5.7223 29.12,-1.2257 39.18,10.4270005 1.34,1.549 3.32,3.713 4.40999,4.809 1.76,1.769 4.89,6.506 7.71,11.65 1.83,3.335 3.31,14.764 2.85,22.067 -0.43,6.864 -2.91,18.12 -4.32,19.602 -0.39,0.413 -0.71,1.302 -0.72,1.975 -0.02,1.905 -9.51999,20.208 -14.58999,28.095 -5.6,8.7 -6.22,10.15 -5.63,13.27 0.62038,3.32121 4.42934,7.35318 8.61181,9.90094" />
  <path
     id="path947"
     style="fill:#f4f4f4;fill-opacity:1"
     d="m 181.77145,124.41879 c -1.12219,-0.28909 -2.89686,-0.44474 -4.47267,-0.35935 l -3.67,0.19 -2.57,-5.21 c -1.41,-2.86 -2.71,-5.06 -2.89,-4.87 -0.76,0.75 1.54,6.91 3.42,9.14 1.11,1.33 1.65,2.41 1.19,2.41 -0.46,0 -1.66,-1.22 -2.67,-2.71 -1.28,-1.89 -2.17,-2.52 -2.91,-2.06 -0.85,0.52 -0.71,1.16 0.72,3.15 0.97,1.38 1.6,2.68 1.38,2.89 -0.72,0.73 -3.89,-5.25 -3.42,-6.47 0.26,-0.66 0.15,-1.01 -0.23,-0.78 -0.38,0.24 -0.93,-1.16 -1.22,-3.12 -0.3,-1.95 -0.84,-3.54 -1.22,-3.54 -0.38,0 -0.36,1.15 0.05,2.56 0.93,3.25 0.92,3.97 -0.03,3.38 -1.09,-0.67 1.03,4.13 2.67,6.04 0.75,0.88 1.17,1.8 0.93,2.04 -0.53,0.53 -4,-2.87 -4.64,-4.54 -0.35,-0.93 -0.46,-0.87 -0.51,0.24 -0.03,0.78 0.48,2.47 1.15,3.75 0.66,1.28 1.02,2.33 0.8,2.33 -0.22,0 -1.11,-1.39 -1.98,-3.09 -1.11,-2.19 -1.61,-4.84 -1.69,-9.02 -0.1,-5.04 0.14,-6.19 1.56,-7.72 0.93,-0.99 1.73,-2.36 1.78,-3.04 0.27,-3.26 0.6,-4.64 1.86,-7.745 0.75,-1.845 1.73,-3.134 2.16,-2.865 0.47,0.291 0.61,-0.111 0.34,-0.993 -0.24,-0.815 0.26,-3.437 1.13,-5.828 0.86,-2.39 2.17,-6.124 2.89,-8.297 l 1.32,-3.951 0.48,3.161 c 0.27,1.738 0.39,6.539 0.29,10.668 l -0.2,7.507 0.63,-5.927 c 0.35,-3.259 0.85,-7.527 1.11,-9.482 0.37,-2.736 0.31,-3.101 -0.27,-1.581 -0.59,1.54 -0.67,1.123 -0.37,-1.888 0.21,-2.125 0.44,-4.614 0.5,-5.532 0.07,-0.917 0.37,-0.067 0.67,1.889 l 0.56,3.556 0.12,-3.754 c 0.06,-2.064 0.41,-3.753 0.78,-3.753 0.36,0 0.33,-2.186 -0.07,-4.85799 -0.41,-2.672 -0.49,-6.494 -0.18,-8.495 l 0.57,-3.637 1.62,7.112 c 0.9,3.911 1.66,9.30099 1.69,11.97599 0.03,2.675 0.29,4.718 0.58,4.539 0.28,-0.179 0.7,0.121 0.92,0.667 0.22,0.546 0.43,-1.674 0.46,-4.934 0.05,-4.07 -0.57,-8.23499 -1.96,-13.29699 -1.11,-4.054 -1.9,-7.716 -1.76,-8.137 0.14,-0.421 1.11,2.284 2.16,6.013 1.11,3.959 2.14,6.379 2.49,5.818 0.33,-0.528 -0.21,-3.117 -1.2,-5.753 -0.99,-2.637 -2.03,-6.217 -2.3,-7.955 -0.31,-1.924 0.35,-0.609 1.7,3.358 3.65,10.811 5.67999,10.82 2.46,0.01 -0.9,-3.022 -1.49,-5.641 -1.31,-5.82 0.18,-0.17801 0.74,1.069 1.25,2.773 0.51,1.703 1.48,4.106 2.15,5.339 1.19999,2.19 1.21999,2.143 0.69,-2.065 -0.3,-2.369 -1.22,-5.886 -2.05,-7.81601 -0.83,-1.931 -1.37,-3.646 -1.2,-3.812 0.69,-0.688 3.83999,8.34201 4.24999,12.18101 0.25,2.282 0.8,4.149 1.23,4.149 0.73,0 0.59,-1.493 -0.67,-6.822 -0.36,-1.499 -0.27,-1.998 0.25,-1.475 0.43,0.434 1.43,3.733 2.23,7.331 1.07,4.831 1.64,6.205 2.17,5.254 0.47,-0.849 0.3,-2.268 -0.52,-4.17 -0.67,-1.586 -1.77,-5.101 -2.43,-7.81 -0.66,-2.71 -2.1,-6.69901 -3.19999,-8.86401 -1.1,-2.165 -1.98,-4.216 -1.96,-4.556 0.02,-0.34 0.95,1.136 2.06999,3.28 3.08,5.924 5.39,7.82601 4.62,3.806 l -0.41,-2.173 1.22,2.37 1.21,2.371 -0.37,-2.371 c -0.21,-1.304 -0.63,-3.437 -0.95,-4.741 -0.53,-2.217 -0.47,-2.294 0.86,-1.192 1.32,1.092 1.38,1.04 0.83,-0.705 -0.33,-1.037 -0.71,-3.075 -0.84,-4.529 -0.21,-2.226 -2.96,-7.403 -3.94,-7.403 -0.16,0 0.4,2.012 1.24,4.47 0.85,2.458 1.54,4.559 1.54,4.667 0,0.109 -0.71,0.012 -1.58,-0.216 -0.87,-0.227 -1.58,-0.863 -1.58,-1.413 0,-1.166 -7.51999,-11.042 -8.45999,-11.109 -0.75,-0.054 -8.93,-5.199 -8.93,-5.621 0,-0.606 6.08,2.836 7.03,3.981 0.54,0.658 1.47,1.013 2.05,0.79 0.64,-0.246 2.63,1.679 5.08,4.906 4.32999,5.726 4.55999,5.752 2.90999,0.335 -0.76,-2.513 -1.47,-3.52 -2.42999,-3.434 -0.83,0.075 -1.75,-0.843 -2.4,-2.391 -1.22,-2.938 -7.98,-8.89 -11.47,-10.107 -1.34,-0.465 -2.28,-0.992 -2.1,-1.1710005 0.76,-0.761 5.11,1.6370005 9,4.9580005 4.11,3.514 5.71,3.804 2.61,0.474 -2.31,-2.475 -1.94,-3.153 0.5,-0.912 1.91,1.762 2.01,1.78 1.21,0.23 -0.49,-0.926 -1.42,-1.891 -2.07,-2.143 -0.66,-0.252 -1.01,-0.952 -0.78,-1.556 0.65,-1.6790005 -3.29,-3.9768005 -5.01,-2.9228005 -1.04,0.6423 -1.08,0.8129 -0.18,0.7262 2.31,-0.2202 3.25,0.0833 2.76,0.8836 -0.28,0.4460005 -0.08,0.7120005 0.44,0.5930005 0.52,-0.12 1.05,0.405 1.17,1.166 0.13,0.76 0.11,1.382 -0.05,1.382 -0.16,0 -2.35,-1.472 -4.87,-3.2710005 -2.52,-1.7998 -3.87,-3.0181 -3,-2.7076 0.87,0.3105 1.76,0.6271 1.97,0.7036 0.22,0.0764 0.58,-0.2068 0.79,-0.6294 0.43,-0.8333 -6.11,-2.2214 -7.22,-1.5334 -0.37,0.2307 -0.68,0.0862 -0.68,-0.3213 0,-1.2881 -11.22,-2.5606 -14.53,-1.6475 -1.62,0.4482 -3.37,0.6426 -3.89,0.432 -0.52,-0.2105 -0.05,-0.4164 1.04,-0.4573 1.62,-0.0612 1.76,-0.2258 0.79,-0.9212 -0.95,-0.6803 -0.84,-0.7701 0.59,-0.4572 0.98,0.2142 1.95,0.115 2.15,-0.2206 0.21,-0.3355 1.28,-0.4385 2.37,-0.2288 1.28,0.244 2,0.0239 2,-0.6111 0,-1.5284 -7.25,-0.3983 -12.31,1.9198 -2.36,1.079 -4.29,2.1388 -4.29,2.3552 0,0.3819 0.59,0.2917 4.75,-0.7285 1.08,-0.2668 -0.16,0.6001 -2.77,1.9265 -5.69,2.8948 -5.79,2.9128 -3.88,0.7207 1.13,-1.2955 0.76,-1.1693 -1.48,0.5053 -1.64,1.2274 -2.8,2.4108 -2.58,2.6288005 0.22,0.219 1.03,-0.091 1.8,-0.6890005 1.2,-0.9345 1.19,-0.8423 -0.09,0.6590005 -0.82,0.96 -1.77,1.571 -2.12,1.357 -0.34,-0.215 -0.89,0.027 -1.2,0.535 -0.36,0.578 -0.23,0.714 0.34,0.362 1.22,-0.751 1.17,0.503 -0.07,1.928 -0.55,0.623 -0.05,0.312 1.1,-0.692 2.74,-2.397 3.71,-0.908 1.46,2.25 -0.93,1.301 -1.35,2.365 -0.93,2.365 0.85,0 3.69,-3.921 3.72,-5.136 0.04,-1.555 1.24,-2.69 2.37,-2.254 0.64,0.244 0.94,0.791 0.68,1.216 -0.26,0.425 0.61,0.21 1.94,-0.478 1.33,-0.687 3.84,-1.25 5.58,-1.25 4.24,0 11.14,1.527 11.14,2.464 0,0.476 -0.52,0.476 -1.41,-10e-4 -0.77,-0.414 -3.91,-1 -6.98,-1.302 -4.33,-0.427 -6.1,-0.274 -7.95,0.685 -2.44,1.262 -7.37,6.342 -7.37,7.599 0,0.384 -0.23,1.35 -0.51,2.146 -0.42,1.184 -0.32,1.268 0.56,0.46 1.33,-1.242 2.61,-1.293 1.85,-0.076 -0.35,0.565 -0.21,0.698 0.35,0.349 0.5,-0.311 1.3759,-2.647809 1.3759,-3.452809 0,-1.752 3.62375,-3.640219 6.22476,-3.676683 3.41153,-0.04783 5.80934,1.185492 6.28934,2.430492 1.9,4.957 -6.37,9.685 -11.01,6.292 -1.29,-0.94 -1.76,-0.927 -3.31,0.091 -1,0.653 -1.82,1.654 -1.82,2.225 0,1.339 -4.22,4.682 -4.57,3.623 -0.15,-0.442 0.12,-1.534 0.6,-2.428 0.48,-0.893 0.56,-1.624 0.19,-1.624 -1.18,0 -0.34,-7.126 1.1,-9.341 1.03,-1.585 1.08,-1.871 0.18,-1.136 -0.66,0.539 -1.49,0.717 -1.84,0.395 -0.36,-0.322 -0.39,-0.126 -0.06,0.437 0.57,0.994 -0.75,3.323 -1.89,3.323 -0.31,0 -0.5,-1.121 -0.42,-2.491 0.14,-2.239 0.05,-2.348 -0.89,-1.071 -0.57,0.781 -1.96,4.201 -3.09,7.599 -1.13,3.398 -2.86,7.362 -3.85,8.809 -3.66,5.394 -3.17,7.816 1.6,7.897 5.55,0.094 14.21,-1.188 12.52,-1.851 -1.44,-0.563 -1.43,-0.609 0.23,-0.661 1.07,-0.034 1.77,0.411 1.77,1.13 0,0.67 0.78,1.231 1.78,1.292 0.98,0.059 -1.37,0.41 -5.22,0.781 -7.04,0.677 -11.68,2.517 -12.64,5.014 -0.5,1.319 0.61,1.71401 6.6,2.34101 3.19,0.334 3.87,0.25 2.57,-0.312 -2.51,-1.08501 -2.21,-1.67601 0.39,-0.78601 2.37,0.80601 9.33,-0.99 7.23,-1.864 -0.61,-0.25 0.49,-0.238 2.44,0.028 3.25,0.443 3.44,0.377 2.29,-0.773 -0.69,-0.692 -2.46,-1.405 -3.94,-1.585 -1.47,-0.18 0.94,-0.384 5.37,-0.454 7.49,-0.117 11.3,-1.145 7.17,-1.938 -1.7,-0.327 -1.69,-0.35 0.19,-0.463 1.57,-0.096 1.73,-0.274 0.79,-0.881 -1.4,-0.895 10.75,-0.23 14.87,0.814 2.16,0.548 2.47,0.477 1.74,-0.402 -0.61,-0.731 -0.62,-1.227 -0.06,-1.577 0.46,-0.28 1.24,0.399 1.75,1.51 0.8,1.77 3.03,2.885 3.03,1.518 0,-1.717 -4.2,-4.051 -8.13,-4.513 -2.4,-0.282 -5.2,-0.879 -6.21,-1.327 l -1.86,-0.814 1.98,0.452 c 4.44,1.017 14.22,1.392 14.22,0.546 0,-0.469 -1.15,-0.997 -2.56,-1.172 -2.2,-0.272 -2.08,-0.337 0.83,-0.445 1.88,-0.07 3.22,0.182 2.98,0.56 -0.23,0.377 0.66,2.908 1.97,5.624 1.32,2.716 2.2,5.133 1.96,5.372 -0.55,0.548 -0.52,0.586 -2.77,-4.371 -1.04,-2.28 -2,-4.031 -2.14,-3.891 -0.14,0.141 0.59,3.162 1.62,6.715 1.98,6.78501 1.39,9.18301 -0.65,2.705 l -1.19,-3.753 0.33,4.346 c 0.19,2.39001 0.59,5.55701 0.89,7.03701 0.43,2.08 0.33,2.55 -0.45,2.068 -0.79,-0.49 -0.94,0.573 -0.69,4.952 0.17,3.066 0.09,5.436 -0.19,5.265 -0.94,-0.58 -1.43,-9.203 -0.61,-10.528 0.53,-0.844 0.58,-3.221 0.15,-6.744 -0.9,-7.38201 -2.18,-8.31401 -12.17,-8.87101 -8.58,-0.479 -8.56,0.839 0.03,1.746 2.83,0.3 5.69,0.649 6.34,0.774 0.65,0.126 1.65,0.256 2.22,0.289 0.57,0.034 0.85,0.364 0.62,0.735 -0.23,0.37 0.09,1.348 0.72,2.173 1.22,1.60901 1.56,3.01201 0.59,2.41001 -0.32,-0.201 -0.61,3.422 -0.64,8.054 -0.05,7.184 -0.45,9.723 -2.72,17.29599 -1.46,4.882 -2.79,8.743 -2.96,8.579 -0.16,-0.163 1.01,-5.223 2.61,-11.243 2.55,-9.59199 2.85,-11.66799 2.43,-16.79699 -0.5,-6.232 -0.84,-7.16901 -2.12,-5.888 -0.48,0.485 -0.55,1.567 -0.15,2.713 0.35,1.049 0.43,5.107 0.16,9.019 l -0.49,7.112 -0.13,-8.152 c -0.13,-7.897 -0.9,-11.209 -2.59,-11.209 -0.45,0 -0.59,0.696 -0.31,1.576 0.37,1.191 0.2,1.463 -0.7,1.117 -1.02,-0.391 -1.05,-0.161 -0.25,1.542 0.88,1.863 0.98,1.895 1.51,0.463 0.75,-2.031 0.99,-1.938 1.13,0.439 0.07,1.253 -0.3,1.975 -1.03,1.975 -0.63,0 -0.93,0.356 -0.66,0.79 0.27,0.435 0.11,0.791 -0.35,0.791 -0.46,0 -0.84,-0.818 -0.84,-1.818 0,-1.751 -1.3,-3.714 -2.45,-3.714 -0.31,0 -0.38,0.707 -0.15,1.572 0.23,0.864 0.73,1.376 1.11,1.138 0.39,-0.238 0.65,1.1 0.58,2.973 -0.09,2.539 -0.2,2.826 -0.45,1.13 -0.39,-2.564 -3.78,-6.672 -4.74,-5.72 -0.34,0.342 0.27,1.392 1.36,2.333 1.57,1.361 1.93,2.316 1.73,4.674 -0.13,1.63 -0.6,2.963 -1.02,2.963 -0.46,0 -0.57,-1.108 -0.28,-2.686 0.35,-1.844 0.17,-2.896 -0.56,-3.358 -0.58,-0.37 -1.56,-1.651 -2.18,-2.846 -0.61,-1.195 -1.74,-2.173 -2.5,-2.173 -0.76,0 -2.03,-0.226 -2.83,-0.502 -1.03,-0.356 -0.9,-0.07 0.44,0.988 5.07,3.998 5.77,5.206 5.22,8.982 -0.29,1.964 -0.87,3.926 -1.31,4.361 -0.52,0.525 -0.6,-0.272 -0.22,-2.371 0.31,-1.738 0.68,-3.295 0.82,-3.458 0.14,-0.164 -0.23,-1.242 -0.83,-2.396 -0.77,-1.482 -2.31,-2.489 -5.26,-3.432 -2.29,-0.735 -4.27,-1.241 -4.38,-1.126 -0.12,0.115 1.11,0.887 2.72,1.716 3.86,1.984 7.21,5.931 5.04,5.931 -0.37,0 -1.05,-0.84 -1.52,-1.866 -0.47,-1.027 -1.68,-2.079 -2.69,-2.339 l -1.85,-0.474 1.7,1.352 c 1.89,1.509 3.53,5.547 1.83,4.493 -0.73,-0.45 -0.87,-0.109 -0.53,1.284 0.26,1.077 -0.05,2.749 -0.72,3.871 l -1.19,1.976 0.51,-1.976 c 0.71,-2.737 0.45,-7.351 -0.45,-8.256 -0.78,-0.779 -1.05,1.544 -0.95,8.237 0.05,3.13899 -1.53,7.92099 -2.62,7.92099 -0.22,0 0,-0.741 0.48,-1.648 0.49,-0.906 0.68,-1.85 0.44,-2.097 -0.25,-0.246 -0.98,0.805 -1.62,2.336 -0.64,1.531 -2.44,4.465 -4.01,6.52 -1.57,2.056 -2.65,3.938 -2.41,4.183 0.54,0.538 -3.49,7.872 -10.66,19.391 -5.14,8.25 -7.61,13.73 -9.47,21.04 -0.6,2.38 -1.09,3.16 -1.54,2.43 -0.82,-1.33 -2.88,5.29 -4.06,13.04 -0.46,3.04 -1.32,6.6 -1.91,7.9 -0.59,1.3 -1.22,3.44 -1.39,4.74 l -0.31,2.37 -0.12,-2.55 c -0.06,-1.4 0.39,-3.89 1.01,-5.53 0.62,-1.64 1.36,-4.76 1.65,-6.93 0.81,-6.1 4.43,-16.51 5.31,-15.26 0.49,0.68 0.57,0.28 0.25,-1.2 -0.32,-1.46 -0.21,-2.07 0.33,-1.74 0.45,0.28 0.82,0.05 0.82,-0.52 0.01,-1.48 3.23,-9.19 5.33,-12.74 0.98,-1.65 1.78,-3.3 1.78,-3.65 0,-0.36 0.5,-1.07 1.12,-1.58 1.23,-1.02 7.57,-11.245 7.57,-12.202 0,-1.253 -1.67,0.527 -3.1,3.309 -0.82,1.6 -2.64,4.154 -4.04,5.673 -2.02,2.2 -2.34,2.37 -1.56,0.79 0.87,-1.733 0.85,-1.829 -0.17,-0.79 -1.75,1.81 -5.51,8.69 -4.74,8.69 0.37,0 1.29,-1.28 2.04,-2.86 0.75,-1.57 1.56,-2.67 1.79,-2.44 0.24,0.24 -0.1,1.26 -0.74,2.27 -0.64,1.02 -3.38,6.12 -6.08,11.33 -2.7,5.22 -4.71,8.63 -4.47,7.59 0.86,-3.7 -0.9,-0.37 -3.3,6.24 -1.34,3.7 -2.97,9.74 -3.63,13.43 -0.65,3.7 -1.4,7.61 -1.66,8.7 -0.26,1.08 -0.48,6.79 -0.49,12.68 -0.02,10.81 1.18,18.68 2.52,16.51 0.42,-0.68 0.32,-1.32 -0.26,-1.68 -1.33,-0.82 -1.25,-19.53 0.13,-29.09 1.24,-8.63 3.5,-18.28 5.19,-22.2 1.68,-3.86 1.5,-2.26 -0.41,3.65 -0.9,2.8 -1.77,6.25 -1.92,7.67 -0.16,1.42 -0.81,5.42 -1.44,8.9 -1.58,8.59 -2.51,25.34 -1.45,25.99 0.54,0.34 0.66,-1.01 0.37,-4.05 -0.68,-6.85 0.25,-4.72 1.26,2.92 0.47919,3.58907 1.21661,6.89123 1.66043,7.44665"
     sodipodi:nodetypes="ccccccscccccccscccscccscccccccccccccccccccccsccccscsccscccccccccccccsccccccssccccccccccscscscscccccccccccccccccccscscccscccccccscscccccccccccccsccscsscccsccccsscccsccscsccsccsccccsccccccccccccccccccsccccsccccccccccccccccccccccccccccccccccscccccscssscccccccscccsccccccccccscccccccccccsccsccccccscccsccccccscsccccscscccccccccccccccccc" />
  <metadata
     id="metadata4">
    <rdf:RDF>
      <cc:Work>
        <dc:format>image/svg+xml</dc:format>
        <dc:type
           rdf:resource="http://purl.org/dc/dcmitype/StillImage" />
        <cc:license
           rdf:resource="http://creativecommons.org/publicdomain/zero/1.0/" />
        <dc:publisher>
          <cc:Agent
             rdf:about="http://openclipart.org/">
            <dc:title>Openclipart</dc:title>
          </cc:Agent>
        </dc:publisher>
        <dc:title>avocet</dc:title>
        <dc:date>2009-03-31T11:18:10</dc:date>
        <dc:description>Source: http://commons.wikimedia.org/wiki/File:Avocet_(PSF).png</dc:description>
        <dc:source>https://openclipart.org/detail/23527/avocet-by-papapishu-23527</dc:source>
        <dc:creator>
          <cc:Agent>
            <dc:title>papapishu</dc:title>
          </cc:Agent>
        </dc:creator>
        <dc:subject>
          <rdf:Bag>
            <rdf:li>animal</rdf:li>
            <rdf:li>biology</rdf:li>
            <rdf:li>bird</rdf:li>
            <rdf:li>black and white</rdf:li>
            <rdf:li>contour</rdf:li>
            <rdf:li>externalsource</rdf:li>
            <rdf:li>line art</rdf:li>
            <rdf:li>ornitology</rdf:li>
            <rdf:li>outline</rdf:li>
            <rdf:li>psf</rdf:li>
            <rdf:li>wikimedia commons</rdf:li>
            <rdf:li>zoology</rdf:li>
          </rdf:Bag>
        </dc:subject>
      </cc:Work>
      <cc:License
         rdf:about="http://creativecommons.org/publicdomain/zero/1.0/">
        <cc:permits
           rdf:resource="http://creativecommons.org/ns#Reproduction" />
        <cc:permits
           rdf:resource="http://creativecommons.org/ns#Distribution" />
        <cc:permits
           rdf:resource="http://creativecommons.org/ns#DerivativeWorks" />
      </cc:License>
    </rdf:RDF>
  </metadata>
  <g
     id="g11141"
     style="fill:#d1d1d1;fill-opacity:1"
     transform="translate(-85.72285,-141.25425)">
    <path
       id="path2311"
       style="fill:#d1d1d1;fill-opacity:1"
       d="m 239.45163,147.59609 c 1.2,-0.1816 2.98,-0.1768 3.95,0.0108 0.97,0.1875 -0.01,0.3362 -2.19,0.3302 -2.17,-0.006 -2.96,-0.1594 -1.76,-0.341 v 0" />
    <path
       id="path2123"
       style="fill:#d1d1d1;fill-opacity:1"
       d="m 246.15163,148.42999 c 0.55,-0.2192 1.44,-0.2192 1.98,0 0.54,0.2192 0.1,0.3986 -0.99,0.3986 -1.09,0 -1.53,-0.1794 -0.99,-0.3986 v 0" />
    <path
       id="path2121"
       style="fill:#d1d1d1;fill-opacity:1"
       d="m 239.63163,150.53379 -3.95,-0.5419 3.95,-0.1121 c 2.18,-0.0616 4.49,0.2327 5.14,0.654 1.37,0.8884 1.34,0.8884 -5.14,0 v 0" />
    <path
       id="path2119"
       style="fill:#d1d1d1;fill-opacity:1"
       d="m 249.91163,151.32399 c -1,-0.4281 -1.15,-0.6791 -0.4,-0.6791 0.65,0 1.9,0.3056 2.77,0.6791 0.99,0.4277 1.14,0.6787 0.39,0.6787 -0.65,0 -1.89,-0.305 -2.76,-0.6787 v 0" />
    <path
       id="path2117"
       style="fill:#d1d1d1;fill-opacity:1"
       d="m 226.86163,153.11669 c 0.68,-1.098 5.27,-2.7039 5.27,-1.8437 0,0.3617 -0.63,0.8357 -1.39,1.0547 -0.76,0.219 -2.06,0.676 -2.89,1.016 -1,0.411 -1.34,0.334 -0.99,-0.227 v 0" />
    <path
       id="path2115"
       style="fill:#d1d1d1;fill-opacity:1"
       d="m 221.50163,153.47969 c 0.49,-1.284 3.28,-3.0301 5.41,-3.3935 0.92,-0.1549 2.73,-0.4876 4.03,-0.7393 1.95,-0.3769 1.85,-0.2588 -0.6,0.6692 -1.63,0.6197 -3.44,1.5196 -4.02,2.0006 -0.58,0.481 -1.24,0.691 -1.46,0.467 -0.23,-0.224 -0.86,0.134 -1.41,0.797 -1.21,1.461 -2.49,1.591 -1.95,0.199 v 0" />
    <path
       id="path2113"
       style="fill:#d1d1d1;fill-opacity:1"
       d="m 252.40163,156.50069 c -0.24,-0.63 -2.68,-1.872 -5.42,-2.761 -2.73,-0.889 -3.73,-1.382 -2.21,-1.095 1.52,0.286 3.89,0.551 5.26,0.588 1.37,0.037 2.38,0.249 2.24,0.471 -0.38,0.623 1.45,2.841 2.77,3.356 0.83,0.322 0.68,0.48 -0.51,0.524 -0.93,0.034 -1.89,-0.453 -2.13,-1.083 v 0" />
    <path
       id="path2111"
       style="fill:#d1d1d1;fill-opacity:1"
       d="m 249.57163,158.24469 c -1.92,-0.931 -3.16,-1.799 -2.76,-1.929 0.4,-0.129 2.5,0.639 4.68,1.708 2.17,1.069 3.41,1.937 2.76,1.929 -0.65,-0.008 -2.76,-0.777 -4.68,-1.708 v 0" />
    <path
       id="path2109"
       style="fill:#d1d1d1;fill-opacity:1"
       d="m 260.18163,158.81169 c -5.57,-3.71 -7.7,-5.562 -3.95,-3.445 4.77,2.7 7,4.13 8.15,5.232 1.85,1.764 -0.14,0.919 -4.2,-1.787 v 0" />
    <path
       id="path2107"
       style="fill:#d1d1d1;fill-opacity:1"
       d="m 251.31163,166.65069 c 0.26,-0.262 0.94,-0.29 1.51,-0.062 0.63,0.252 0.44,0.439 -0.48,0.477 -0.83,0.035 -1.3,-0.152 -1.03,-0.415 v 0" />
    <path
       id="path2105"
       style="fill:#d1d1d1;fill-opacity:1"
       d="m 242.00163,166.77669 c 4.74,-0.891 5.08,-1.057 2.38,-1.147 -1.74,-0.058 -3.7,-0.469 -4.35,-0.913 -1.22,-0.828 0.01,-0.748 7.51,0.488 2.64,0.435 2.89,0.624 1.52,1.144 -0.9,0.343 -4.1,0.814 -7.11,1.046 l -5.48,0.423 5.53,-1.041 v 0" />
    <path
       id="path2103"
       style="fill:#d1d1d1;fill-opacity:1"
       d="m 223.83163,170.28969 c 0.87,-0.374 2.29,-0.699 3.16,-0.723 1.3,-0.036 1.37,0.09 0.4,0.723 -0.66,0.421 -2.08,0.746 -3.17,0.722 -1.8,-0.04 -1.84,-0.1 -0.39,-0.722 v 0" />
    <path
       id="path2101"
       style="fill:#d1d1d1;fill-opacity:1"
       d="m 225.80163,172.69669 c 2.4,-0.837 5.3,-1.542 6.46,-1.569 1.16,-0.026 2.22,-0.349 2.37,-0.717 0.14,-0.369 2.56,-0.904 5.36,-1.191 3.47,-0.354 4.85,-0.263 4.3,0.285 -0.44,0.444 -2.68,0.849 -4.98,0.9 -2.38,0.054 -3.74,0.361 -3.17,0.714 0.66,0.408 0.22,0.736 -1.31,0.962 -1.27,0.188 1.78,0.401 6.78,0.473 5,0.072 9.62,0.504 10.27,0.96 0.97,0.677 0.89,0.757 -0.39,0.435 -2.52,-0.631 -24.22,-0.836 -27.27,-0.258 -1.73,0.33 -1.14,-0.041 1.58,-0.994 v 0" />
    <path
       id="path2099"
       style="fill:#d1d1d1;fill-opacity:1"
       d="m 228.35163,175.24069 c 2.05,-0.162 5.6,-0.164 7.9,-0.003 2.3,0.16 0.62,0.292 -3.73,0.294 -4.34,0.003 -6.22,-0.128 -4.17,-0.291 v 0" />
    <path
       id="path2097"
       style="fill:#d1d1d1;fill-opacity:1"
       d="m 244.57163,176.05369 c 0.98,-0.189 2.58,-0.189 3.56,0 0.98,0.188 0.18,0.342 -1.78,0.342 -1.96,0 -2.76,-0.154 -1.78,-0.342 v 0" />
    <path
       id="path2095"
       style="fill:#d1d1d1;fill-opacity:1"
       d="m 266.88163,176.80869 c -0.02,-0.838 -5.06,-6.519 -5.79,-6.519 -0.33,0 0.74,1.6 2.38,3.556 3.05,3.65 3.44,3.986 3.41,2.963 v 0" />
    <path
       id="path2093"
       style="fill:#d1d1d1;fill-opacity:1"
       d="m 263.50163,176.19969 c -1.46,-1.758 -2.68,-2.521 -3.56,-2.239 -1.03,0.33 -1.1,0.253 -0.27,-0.337 1.73,-1.238 -0.28,-2.038 -7.79,-3.095 l -6.71,-0.946 7.11,0.363 c 6.1,0.311 6.91,0.209 5.74,-0.713 -0.76,-0.591 -1.17,-1.278 -0.92,-1.526 0.66,-0.664 -2.05,-1.938 -5.51,-2.586 -2.2,-0.414 -2.73,-0.769 -1.96,-1.308 0.73,-0.504 0.48,-0.572 -0.79,-0.214 -1.96,0.554 -8.81,-1.628 -8.81,-2.805 0,-0.37 0.98,-0.797 2.17,-0.949 2.13,-0.271 2.12,-0.302 -0.91,-1.643 -4.06,-1.8 -3.27,-2.488 0.95,-0.83 1.81,0.71 3.5,1.951 3.75,2.758 0.26,0.807 1.13,1.467 1.93,1.467 0.8,0 2.11,0.201 2.91,0.446 0.8,0.245 0.47,-0.122 -0.73,-0.816 -3.48,-2.02 -2.55,-2.036 3.27,-0.056 5.83,1.984 9.79,4.188 9.2,5.133 -0.2,0.321 0.7,1.602 2,2.847 1.3,1.245 2.18,2.75 1.95,3.346 -0.23,0.595 0.1,1.812 0.72,2.704 0.96,1.371 0.97,1.788 0.06,2.701 -1.37,1.367 -1.19,1.446 -3.8,-1.702 v 0" />
    <path
       id="path2091"
       style="fill:#d1d1d1;fill-opacity:1"
       d="m 231.73163,179.29569 c -3.91,-0.598 -7.82,-1.437 -8.69,-1.865 -1.3,-0.638 -1.18,-0.692 0.67,-0.3 1.23,0.263 6.56,1.1 11.85,1.86 5.28,0.76 8.18,1.384 6.44,1.387 -1.73,0.003 -6.36,-0.484 -10.27,-1.082 v 0" />
    <path
       id="path2089"
       style="fill:#d1d1d1;fill-opacity:1"
       d="m 246.94163,180.79469 c 0.98,-0.188 2.58,-0.188 3.56,0 0.98,0.188 0.18,0.342 -1.78,0.342 -1.95,0 -2.75,-0.154 -1.78,-0.342 v 0" />
    <path
       id="path2087"
       style="fill:#d1d1d1;fill-opacity:1"
       d="m 229.16163,182.38769 c 0.76,-0.198 2.01,-0.198 2.77,0 0.76,0.199 0.14,0.362 -1.38,0.362 -1.52,0 -2.15,-0.163 -1.39,-0.362 v 0" />
    <path
       id="path2085"
       style="fill:#d1d1d1;fill-opacity:1"
       d="m 226.60163,183.06469 c 0,-0.507 -0.8,-0.963 -1.78,-1.014 -1.47,-0.075 -1.52,-0.158 -0.31,-0.469 1.57,-0.406 3.52,0.973 2.63,1.865 -0.3,0.297 -0.54,0.125 -0.54,-0.382 v 0" />
    <path
       id="path2083"
       style="fill:#d1d1d1;fill-opacity:1"
       d="m 272.03163,179.53969 c -2.98,-6.187 -3.18,-6.698 -2.15,-5.694 1.33,1.31 5.08,8.991 4.79,9.823 -0.15,0.426 -1.33,-1.432 -2.64,-4.129 v 0" />
    <path
       id="path2081"
       style="fill:#d1d1d1;fill-opacity:1"
       d="m 263.80163,182.42969 c -2.2,-4.714 -3.23,-7.399 -2.85,-7.399 0.68,0 4.47,7.993 4.18,8.844 -0.15,0.45 -0.74,-0.2 -1.33,-1.445 v 0" />
    <path
       id="path2079"
       style="fill:#d1d1d1;fill-opacity:1"
       d="m 248.78163,203.14869 c -0.03,-0.833 0.16,-1.299 0.42,-1.037 0.26,0.263 0.29,0.944 0.06,1.515 -0.25,0.63 -0.44,0.443 -0.48,-0.478 v 0" />
    <path
       id="path2077"
       style="fill:#d1d1d1;fill-opacity:1"
       d="m 247.20163,208.68069 c -0.03,-0.833 0.16,-1.3 0.42,-1.037 0.26,0.262 0.29,0.944 0.06,1.514 -0.25,0.631 -0.44,0.444 -0.48,-0.477 v 0" />
    <path
       id="path2075"
       style="fill:#d1d1d1;fill-opacity:1"
       d="m 246.41163,211.84169 c -0.03,-0.833 0.16,-1.3 0.42,-1.037 0.26,0.262 0.29,0.944 0.06,1.514 -0.25,0.631 -0.44,0.443 -0.48,-0.477 v 0" />
    <path
       id="path2073"
       style="fill:#d1d1d1;fill-opacity:1"
       d="m 238.57163,211.16069 c 0.67,-1.57 1.13,-1.908 1.58,-1.185 0.51,0.791 0.65,0.767 0.66,-0.11 0,-0.615 0.22,-0.909 0.48,-0.652 0.25,0.258 0.09,1.117 -0.37,1.91 -0.6,1.028 -0.85,1.115 -0.87,0.303 -0.01,-0.826 -0.35,-0.717 -1.22,0.396 -1.11,1.419 -1.13,1.37 -0.26,-0.662 v 0" />
    <path
       id="path2071"
       style="fill:#d1d1d1;fill-opacity:1"
       d="m 242.90163,213.77969 c 0.67,-3.751 2.55,-8.743 2.54,-6.745 0,0.869 -0.68,3.358 -1.51,5.531 -1.21,3.163 -1.42,3.405 -1.03,1.214 v 0" />
    <path
       id="path2069"
       style="fill:#d1d1d1;fill-opacity:1"
       d="m 232.17163,219.14969 c -0.03,-0.291 1.2,-3.125 2.72,-6.3 1.52,-3.174 2.77,-6.204 2.77,-6.734 0,-0.53 0.33,-1.169 0.74,-1.421 1.21,-0.748 -0.29,3.473 -3.36,9.452 -1.56,3.042 -2.85,5.293 -2.87,5.003 v 0" />
    <path
       id="path2067"
       style="fill:#d1d1d1;fill-opacity:1"
       d="m 237.43163,217.32969 c 1.16,-2.379 2.25,-4.192 2.41,-4.03 0.36,0.355 -3.63,8.354 -4.16,8.354 -0.21,0 0.58,-1.946 1.75,-4.324 v 0" />
    <path
       id="path2065"
       style="fill:#d1d1d1;fill-opacity:1"
       d="m 248.26163,216.55869 c 1.34,-3.633 2.58,-6.471 2.75,-6.306 0.41,0.403 -3.88,12.103 -4.61,12.555 -0.32,0.196 0.52,-2.616 1.86,-6.249 v 0" />
    <path
       id="path2063"
       style="fill:#d1d1d1;fill-opacity:1"
       d="m 241.61163,223.18769 c 0,-0.461 -0.32,-0.638 -0.72,-0.394 -0.39,0.245 -0.5,-0.35 -0.23,-1.337 0.4,-1.458 0.54,-1.528 0.78,-0.386 0.16,0.766 0.61,1.192 1.01,0.946 0.4,-0.245 0.51,0.107 0.25,0.781 -0.54,1.413 -1.09,1.609 -1.09,0.39 v 0" />
    <path
       id="path2061"
       style="fill:#d1d1d1;fill-opacity:1"
       d="m 251.32163,228.51169 c 1.57,-4.071 4.63,-14.737 4.76,-16.528 0.15,-2.158 1.33,-3.161 1.33,-1.129 0,1.601 -5.52,18.701 -6.04,18.701 -0.24,0 -0.27,-0.47 -0.05,-1.044 v 0" />
    <path
       id="path2059"
       style="fill:#d1d1d1;fill-opacity:1"
       d="m 244.86163,229.95069 c 0.05,-1.38 2.95,-7.165 2.98,-5.927 0.01,0.652 -0.66,2.43 -1.49,3.952 -0.83,1.521 -1.5,2.41 -1.49,1.975 v 0" />
    <path
       id="path2057"
       style="fill:#d1d1d1;fill-opacity:1"
       d="m 236.60163,229.20569 c -0.3,-0.771 -0.18,-1.113 0.28,-0.83 0.43,0.266 0.78,0.047 0.78,-0.486 0,-0.532 0.21,-0.758 0.47,-0.501 0.25,0.258 0.13,1.067 -0.28,1.799 -0.69,1.236 -0.78,1.237 -1.25,0.018 v 0" />
    <path
       id="path2055"
       style="fill:#d1d1d1;fill-opacity:1"
       d="m 247.20163,230.74069 c 0,-0.434 0.51,-1.679 1.13,-2.765 0.62,-1.087 1.13,-1.62 1.13,-1.186 0,0.435 -0.51,1.679 -1.13,2.766 -0.62,1.086 -1.13,1.62 -1.13,1.185 v 0" />
    <path
       id="path2053"
       style="fill:#d1d1d1;fill-opacity:1"
       d="m 238.50163,231.74469 c -0.09,-0.935 2.49,-7.025 2.83,-6.683 0.17,0.172 -0.38,1.876 -1.23,3.786 -0.85,1.911 -1.56,3.214 -1.6,2.897 v 0" />
    <path
       id="path2051"
       style="fill:#d1d1d1;fill-opacity:1"
       d="m 231.20163,224.89169 c 2.03,-3.879 3.8,-6.943 3.94,-6.808 0.38,0.38 -6.04,12.873 -6.88,13.397 -0.42,0.255 0.91,-2.71 2.94,-6.589 v 0" />
    <path
       id="path2049"
       style="fill:#d1d1d1;fill-opacity:1"
       d="m 249.51163,231.57769 c 0,-0.677 0.36,-1.232 0.79,-1.232 0.44,0 0.79,0.335 0.79,0.744 0,0.409 -0.35,0.963 -0.79,1.232 -0.43,0.268 -0.79,-0.066 -0.79,-0.744 v 0" />
    <path
       id="path2047"
       style="fill:#d1d1d1;fill-opacity:1"
       d="m 222.80163,231.63869 c 0.53,-1.244 1.11,-1.842 1.28,-1.329 0.17,0.514 1.16,-0.904 2.2,-3.149 2.07,-4.458 2.55,-7.228 0.65,-3.729 -0.64,1.195 -1.53,2.173 -1.97,2.173 -0.98,0 0.41,-2.797 1.84,-3.687 1,-0.63 2.96,-1.088 2.96,-0.696 0,0.925 -5.49,11.633 -5.51,10.751 -0.02,-0.827 -0.35,-0.719 -1.22,0.395 -1.11,1.413 -1.13,1.356 -0.23,-0.729 v 0" />
    <path
       id="path2045"
       style="fill:#d1d1d1;fill-opacity:1"
       d="m 243.26163,234.29669 c -0.03,-0.652 0.3,-1.718 0.72,-2.37 0.93,-1.445 0.93,-0.197 0,1.975 -0.45,1.042 -0.69,1.177 -0.72,0.395 v 0" />
    <path
       id="path2043"
       style="fill:#d1d1d1;fill-opacity:1"
       d="m 220.72163,235.64569 c 0.3,-0.779 0.74,-1.218 0.98,-0.975 0.24,0.244 0,0.881 -0.54,1.417 -0.78,0.775 -0.87,0.684 -0.44,-0.442 v 0" />
    <path
       id="path2041"
       style="fill:#d1d1d1;fill-opacity:1"
       d="m 238.48163,237.36169 c -0.02,-0.27 0.86,-2.404 1.96,-4.741 1.09,-2.338 1.76,-3.361 1.48,-2.275 -0.53,2.063 -3.38,7.871 -3.44,7.016 v 0" />
    <path
       id="path2039"
       style="fill:#d1d1d1;fill-opacity:1"
       d="m 228.97163,238.34569 c 0,-0.477 1.77,-4.161 3.94,-8.187 2.16,-4.026 3.94,-7.024 3.95,-6.662 0,0.362 -1.77,4.047 -3.94,8.188 -2.18,4.141 -3.95,7.138 -3.95,6.661 v 0" />
    <path
       id="path2037"
       style="fill:#d1d1d1;fill-opacity:1"
       d="m 244.10163,240.61869 c 0,-0.652 0.66,-2.963 1.46,-5.136 0.8,-2.174 1.46,-3.418 1.46,-2.766 0,0.652 -0.66,2.963 -1.46,5.136 -0.8,2.173 -1.46,3.418 -1.46,2.766 v 0" />
    <path
       id="path2035"
       style="fill:#d1d1d1;fill-opacity:1"
       d="m 220.27163,242.78669 c 0,-0.87 3.11,-7.7 3.5,-7.7 0.22,0 -0.32,1.682 -1.2,3.738 -1.56,3.642 -2.3,4.902 -2.3,3.962 v 0" />
    <path
       id="path2033"
       style="fill:#d1d1d1;fill-opacity:1"
       d="m 225.04163,243.38669 c 0,-0.44 0.34,-1.33 0.76,-1.978 0.43,-0.652 0.77,-0.83 0.77,-0.395 0,0.435 -0.34,1.323 -0.77,1.973 -0.42,0.65 -0.76,0.83 -0.76,0.4 v 0" />
    <path
       id="path2031"
       style="fill:#d1d1d1;fill-opacity:1"
       d="m 227.42163,245.64669 c -0.02,-0.49 0.48,-2.09 1.12,-3.55 0.63,-1.467 1.18,-2.13 1.21,-1.478 0.04,0.731 0.49,0.429 1.19,-0.79 0.62,-1.087 1.13,-1.62 1.13,-1.186 0,1.134 -2.24,4.904 -2.35,3.954 -0.05,-0.44 -0.58,0.27 -1.18,1.58 -0.59,1.3 -1.1,1.96 -1.12,1.47 v 0" />
    <path
       id="path2029"
       style="fill:#d1d1d1;fill-opacity:1"
       d="m 219.27163,245.29669 c 0.28,-1.07 0.64,-1.43 0.84,-0.83 0.19,0.57 -0.03,1.41 -0.49,1.87 -0.59,0.58 -0.69,0.27 -0.35,-1.04 v 0" />
    <path
       id="path2027"
       style="fill:#d1d1d1;fill-opacity:1"
       d="m 212.37163,247.77669 c 0,-0.41 0.35,-0.96 0.78,-1.23 0.45,-0.27 0.58,0.04 0.31,0.75 -0.52,1.37 -1.09,1.62 -1.09,0.48 v 0" />
    <path
       id="path2025"
       style="fill:#d1d1d1;fill-opacity:1"
       d="m 220.29163,248.92669 c -0.02,-1.04 6.49,-14.706 6.84,-14.356 0.15,0.151 -1.32,3.618 -3.27,7.706 -1.96,4.09 -3.56,7.08 -3.57,6.65 v 0" />
    <path
       id="path2023"
       style="fill:#d1d1d1;fill-opacity:1"
       d="m 235.26163,233.11169 c 0,-0.435 -0.34,-0.257 -0.76,0.395 -0.42,0.652 -0.77,1.541 -0.77,1.976 0,0.434 0.35,0.256 0.77,-0.396 0.42,-0.651 0.76,-1.54 0.76,-1.975 v 0" />
    <path
       id="path2021"
       style="fill:#d1d1d1;fill-opacity:1"
       d="m 230.56163,249.50669 c 0.01,-0.32 0.72,-3.39 1.58,-6.81 1.77,-7.038 1.86,-7.699 0.78,-6.029 -1.38,2.129 -0.77,-0.325 0.79,-3.161 0.83,-1.521 1.53,-2.232 1.56,-1.58 0.04,1.053 0.13,1.053 0.81,0 1.28,-1.991 0.88,-0.107 -0.75,3.471 -0.85,1.861 -2.12,5.931 -2.83,9.049 -0.71,3.11 -1.44,5.65 -1.62,5.65 -0.18,0 -0.33,-0.26 -0.32,-0.59 v 0" />
    <path
       id="path2019"
       style="fill:#d1d1d1;fill-opacity:1"
       d="m 219.55163,251.35669 c -0.04,-0.84 0.15,-1.3 0.41,-1.04 0.26,0.26 0.29,0.94 0.06,1.51 -0.25,0.63 -0.44,0.45 -0.47,-0.47 v 0" />
    <path
       id="path2017"
       style="fill:#d1d1d1;fill-opacity:1"
       d="m 240.10163,252.59669 c -0.11,-1.72 2.33,-9.54 3.14,-10.03 1.15,-0.72 0.87,2.26 -0.38,4.05 -0.62,0.88 -1.48,2.82 -1.91,4.32 -0.43,1.5 -0.81,2.24 -0.85,1.66 v 0" />
    <path
       id="path2015"
       style="fill:#d1d1d1;fill-opacity:1"
       d="m 221.97163,253.26669 c 0,-0.66 0.48,-2.43 1.07,-3.96 0.59,-1.52 1.06,-2.23 1.06,-1.58 0,0.66 -0.47,2.43 -1.06,3.96 -0.59,1.52 -1.07,2.23 -1.07,1.58 v 0" />
    <path
       id="path2013"
       style="fill:#d1d1d1;fill-opacity:1"
       d="m 209.21163,254.53669 c 0,-0.84 2.35,-5.23 2.81,-5.23 0.21,0 -0.2,1.16 -0.91,2.57 -1.47,2.89 -1.9,3.49 -1.9,2.66 v 0" />
    <path
       id="path2011"
       style="fill:#d1d1d1;fill-opacity:1"
       d="m 236.93163,256.09669 c -0.03,-0.84 0.15,-1.3 0.42,-1.04 0.26,0.26 0.29,0.94 0.06,1.51 -0.25,0.63 -0.44,0.45 -0.48,-0.47 v 0" />
    <path
       id="path2009"
       style="fill:#d1d1d1;fill-opacity:1"
       d="m 238.57163,258.00669 c 0,-1.09 0.18,-1.53 0.4,-0.99 0.22,0.54 0.22,1.43 0,1.97 -0.22,0.55 -0.4,0.1 -0.4,-0.98 v 0" />
    <path
       id="path2007"
       style="fill:#d1d1d1;fill-opacity:1"
       d="m 214.83163,259.97669 c -0.02,-0.43 0.68,-2.74 1.56,-5.13 0.98,-2.64 1.44,-3.38 1.2,-1.87 -0.42,2.61 -2.69,8.36 -2.76,7 v 0" />
    <path
       id="path2005"
       style="fill:#d1d1d1;fill-opacity:1"
       d="m 226.75163,259.97669 c 0,-0.87 0.29,-2.47 0.64,-3.55 0.5,-1.57 0.63,-1.65 0.63,-0.4 0,0.87 -0.29,2.47 -0.63,3.56 -0.51,1.56 -0.64,1.64 -0.64,0.39 v 0" />
    <path
       id="path2003"
       style="fill:#d1d1d1;fill-opacity:1"
       d="m 225.87163,263.20669 c -0.04,-0.83 0.15,-1.3 0.41,-1.04 0.27,0.26 0.29,0.95 0.06,1.52 -0.25,0.63 -0.43,0.44 -0.47,-0.48 v 0" />
    <path
       id="path2001"
       style="fill:#d1d1d1;fill-opacity:1"
       d="m 223.12163,263.13669 c 0.28,-1.74 0.51,-3.69 0.5,-4.34 -0.03,-2.37 3.18,-11.96 3.8,-11.33 0.34,0.36 -0.6,4.75 -2.1,9.75 -1.5,4.99 -2.49,7.66 -2.2,5.92 v 0" />
    <path
       id="path1999"
       style="fill:#d1d1d1;fill-opacity:1"
       d="m 222.07163,269.85669 c 0,-1.96 0.15,-2.76 0.34,-1.78 0.19,0.98 0.19,2.58 0,3.56 -0.19,0.98 -0.34,0.18 -0.34,-1.78 v 0" />
    <path
       id="path1997"
       style="fill:#d1d1d1;fill-opacity:1"
       d="m 239.74163,272.14669 c -0.27,-1.34 -0.34,-3.21 -0.14,-4.15 0.19,-0.93 0.55,-4.17 0.8,-7.19 0.26,-3.03 0.76,-5.7 1.12,-5.93 0.36,-0.24 0.91,-2.13 1.22,-4.2 0.3,-2.07 0.83,-3.59 1.17,-3.38 0.34,0.21 1.04,-1.48 1.56,-3.74 0.51,-2.269 1.64,-5.546 2.5,-7.284 0.86,-1.739 1.35,-2.45 1.09,-1.581 -0.26,0.87 -1.4,4.85 -2.53,8.845 -1.13,4 -2.3,7.11 -2.61,6.92 -1.44,-0.89 -2.21,11.91 -0.97,16.24 1.79,6.27 1.88,6.87 0.66,4.35 -0.63,-1.31 -1.16,-3.18 -1.17,-4.15 -0.02,-0.98 -0.43,-1.78 -0.92,-1.78 -0.55,0 -0.68,0.77 -0.35,2.1 0.31,1.23 0.17,2.32 -0.34,2.63 -0.6,0.38 -0.62,1.17 -0.06,2.64 0.44,1.16 0.5,2.11 0.13,2.11 -0.37,0 -0.89,-1.1 -1.16,-2.45 v 0" />
    <path
       id="path1995"
       style="fill:#d1d1d1;fill-opacity:1"
       d="m 237.61163,275.18669 c -0.4,-1.76 -0.33,-11.81 0.08,-12.07 0.31,-0.19 0.62,2.49 0.68,5.96 0.07,3.47 -0.07,6.31 -0.3,6.31 -0.23,0 -0.43,-0.09 -0.46,-0.2 v 0" />
    <path
       id="path1993"
       style="fill:#d1d1d1;fill-opacity:1"
       d="m 202.93163,272.01669 c 0.71,-3.78 3.47,-11.42 4.78,-13.22 0.69,-0.95 0.74,-0.87 0.26,0.39 -2.27,6.02 -4.29,12.75 -4.29,14.33 0,1.03 -0.31,1.87 -0.69,1.87 -0.38,0 -0.41,-1.5 -0.06,-3.37 v 0" />
    <path
       id="path1989"
       style="fill:#d1d1d1;fill-opacity:1"
       d="m 235.81163,242.79669 c -0.22,-0.55 -0.4,-0.1 -0.4,0.98 0,1.09 0.18,1.53 0.4,0.99 0.22,-0.54 0.22,-1.43 0,-1.97 v 0" />
    <path
       id="path1987"
       style="fill:#d1d1d1;fill-opacity:1"
       d="m 235.02163,271.22669 c -0.22,-0.54 -0.38,0.09 -0.37,1.4 0.02,1.3 0.19,1.74 0.4,0.97 0.2,-0.77 0.18,-1.84 -0.03,-2.37 v 0" />
    <path
       id="path1985"
       style="fill:#d1d1d1;fill-opacity:1"
       d="m 235.39163,276.77669 c -0.52,-0.98 -0.76,-1.16 -0.55,-0.4 0.22,0.76 0.05,1.38 -0.37,1.38 -0.64,0 -1.25,-8.48 -0.92,-12.64 0.06,-0.65 0.16,-3.14 0.23,-5.53 0.18,-5.51 1.53,-10.72 2.42,-9.32 1.12,1.77 0.74,-1.13 -0.42,-3.22 l -1.04,-1.87 -1.27,3.06 c -0.69,1.68 -1.28,2.52 -1.3,1.86 -0.02,-0.65 0.44,-2.09 1.02,-3.21 0.59,-1.11 1.32,-3.05 1.63,-4.3 0.46,-1.826 0.74,-2.052 1.38,-1.137 0.58,0.837 0.66,0.497 0.31,-1.226 -0.35,-1.747 -0.27,-2.059 0.32,-1.185 0.66,0.978 0.81,0.989 0.82,0.065 0,-0.615 0.17,-0.954 0.37,-0.753 0.21,0.201 -0.15,2.106 -0.79,4.236 -1.55,5.13 -0.21,6.47 1.64,1.64 2.32,-6.097 2.03,-3.58 -0.41,3.46 -1.25,3.63 -2.75,6.9 -3.32,7.26 -0.71,0.45 -0.74,0.67 -0.11,0.67 0.68,0.01 0.74,0.72 0.2,2.58 -0.4,1.41 -0.7,3.45 -0.65,4.54 0.07,1.62 0.28,1.41 1.15,-1.18 l 1.07,-3.16 -0.48,4.35 c -0.26,2.39 -0.78,4.46 -1.15,4.61 -0.37,0.14 -0.67,0.79 -0.67,1.43 0,0.64 0.31,0.97 0.69,0.73 0.58,-0.35 1.84,8.2 1.31,8.84 -0.1,0.12 -0.6,-0.6 -1.11,-1.58 v 0" />
    <path
       id="path1981"
       style="fill:#d1d1d1;fill-opacity:1"
       d="m 211.24163,274.99669 c 0.44,-5.25 2.52,-14.29 3.15,-13.66 0.16,0.16 -0.22,2.24 -0.85,4.61 -1.33,4.96 -1.56,10.15 -0.34,7.47 0.49,-1.07 0.56,-0.29 0.24,2.37 -0.51,4.18 -1.03,5.62 -1.12,3.09 -0.06,-1.45 -0.09,-1.45 -0.8,0.07 -0.49,1.06 -0.58,-0.25 -0.28,-3.95 v 0" />
    <path
       id="path1979"
       style="fill:#d1d1d1;fill-opacity:1"
       d="m 218.30163,277.72669 c 0.27,-1.94 0.82,-5.71 1.23,-8.38 0.42,-2.67 0.58,-5.33 0.37,-5.92 -0.22,-0.59 0.1,-2.85 0.7,-5.03 l 1.09,-3.95 -0.26,4.74 c -0.33,6.01 -2.49,20.96 -3.12,21.59 -0.27,0.26 -0.27,-1.11 -0.01,-3.05 v 0" />
    <path
       id="path1977"
       style="fill:#d1d1d1;fill-opacity:1"
       d="m 231.24163,278.34669 c -0.06,-1.84 -0.18,-4.06 -0.26,-4.93 -0.09,-0.87 0.1,-2.47 0.42,-3.56 0.35,-1.22 0.6,0.67 0.65,4.94 0.08,6.89 -0.62,9.95 -0.81,3.55 v 0" />
    <path
       id="path1975"
       style="fill:#d1d1d1;fill-opacity:1"
       d="m 202.28163,279.33669 c 0,-1.52 0.16,-2.14 0.36,-1.38 0.2,0.76 0.2,2 0,2.77 -0.2,0.76 -0.36,0.13 -0.36,-1.39 v 0" />
    <path
       id="path1973"
       style="fill:#d1d1d1;fill-opacity:1"
       d="m 215.65163,277.87669 c -0.11,-5.39 2.03,-20.36 2.8,-19.59 0.19,0.19 -0.07,2.6 -0.58,5.36 -0.51,2.77 -1.2,8.4 -1.52,12.53 l -0.59,7.51 -0.11,-5.81 v 0" />
    <path
       id="path1971"
       style="fill:#d1d1d1;fill-opacity:1"
       d="m 206.85163,282.30669 c 0.01,-0.55 0.49,-3.3 1.06,-6.13 0.57,-2.82 1.11,-6.56 1.2,-8.3 0.09,-1.73 0.53,-4.58 0.97,-6.32 1.09,-4.23 5.55,-16.49 6.18,-16.99 0.28,-0.21 1.17,-1.91 1.99,-3.759 0.81,-1.851 1.6,-3.248 1.74,-3.103 0.35,0.345 -3.11,8.722 -3.82,9.252 -0.3,0.23 -1.66,3.72 -3.01,7.76 -2.29,6.82 -3.39,12.75 -4.49,24.03 -0.24,2.5 -0.75,4.54 -1.14,4.54 -0.38,0 -0.68,-0.44 -0.68,-0.98 v 0" />
    <path
       id="path1969"
       style="fill:#d1d1d1;fill-opacity:1"
       d="m 224.83163,283.56669 c -0.41,-3.5 -0.26,-5.49 0.52,-7.11 0.66,-1.36 0.9,-3.35 0.62,-5.02 l -0.47,-2.77 -0.59,2.77 c -0.32,1.52 -0.95,4.01 -1.4,5.53 l -0.81,2.77 0.31,-2.77 c 0.54,-4.81 2.37,-11.45 3.19,-11.59 0.48,-0.08 0.82,2.92 0.87,7.57 0.04,4.23 0.44,8.34 0.89,9.14 0.61,1.09 0.81,-0.12 0.79,-4.8 -0.05,-12.37 0.44,-23.66 1.1,-25.21 0.46,-1.08 0.55,-0.58 0.28,1.58 -0.31,2.5 -0.22,2.83 0.42,1.58 0.73,-1.42 0.77,-1.38 0.44,0.4 -0.2,1.08 -0.56,3.57 -0.79,5.53 l -0.42,3.55 1.08,-3.95 c 1.62,-5.92 1.46,-3.39 -0.37,5.93 -1.52,7.74 -1.56,11.01 -0.21,16.42 0.42,1.69 0.32,1.75 -1.62,0.86 -1.13,-0.52 -2.12,-1.51 -2.19,-2.2 -0.07,-0.69 -0.34,0.53 -0.6,2.7 l -0.47,3.95 -0.57,-4.86 v 0" />
    <path
       id="path1967"
       style="fill:#d1d1d1;fill-opacity:1"
       d="m 222.36163,287.43669 c -0.27,-1.63 -0.45,-4.03 -0.4,-5.33 0.06,-1.75 0.24,-1.4 0.7,1.31 0.34,2.03 0.86,4.43 1.15,5.34 0.29,0.9 0.19,1.65 -0.22,1.65 -0.41,0 -0.96,-1.34 -1.23,-2.97 v 0" />
    <path
       id="path1965"
       style="fill:#d1d1d1;fill-opacity:1"
       d="m 202.15163,290.24669 c -0.03,-0.73 0.26,-1.53 0.65,-1.76 0.38,-0.24 1.14,-4.06 1.69,-8.49 0.99,-8.12 2.19,-13.73 2.24,-10.54 0.04,1.98 -2.86,20.84 -3.03,19.76 -0.07,-0.43 -0.44,-0.08 -0.81,0.79 -0.55,1.29 -0.69,1.33 -0.74,0.24 v 0" />
    <path
       id="path1963"
       style="fill:#d1d1d1;fill-opacity:1"
       d="m 219.83163,291.73669 c -0.78,-2.01 -0.63,-9.35 0.25,-12.79 l 0.8,-3.16 0.09,3.2 c 0.05,1.76 -0.23,3.54 -0.63,3.95 -0.42,0.44 -0.43,2.5 -0.02,5.05 0.69,4.27 0.44,6.18 -0.49,3.75 v 0" />
    <path
       id="path1961"
       style="fill:#d1d1d1;fill-opacity:1"
       d="m 197.39163,293.95669 c -0.51,-4.35 1.83,-19.34 2.86,-18.31 0.2,0.21 -0.03,1.88 -0.53,3.73 -0.5,1.84 -1.18,6.24 -1.53,9.76 -0.34,3.52 -0.7,5.69 -0.8,4.82 v 0" />
    <path
       id="path1959"
       style="fill:#d1d1d1;fill-opacity:1"
       d="m 217.53163,296.75669 c -0.26,-0.42 -0.62,-3.17 -0.81,-6.12 -0.32,-5.17 -0.31,-5.21 0.34,-1.23 0.37,2.28 0.89,5.04 1.17,6.13 0.5,2 0.15,2.61 -0.7,1.22 v 0" />
    <path
       id="path1957"
       style="fill:#d1d1d1;fill-opacity:1"
       d="m 211.31163,299.68669 c -0.88,-3.49 -1.54,-18.77 -0.82,-18.77 0.39,0 0.8,2.23 0.9,4.94 0.11,2.72 0.4,7.34 0.67,10.27 0.47,5.28 0.11,7 -0.75,3.56 v 0" />
    <path
       id="path1955"
       style="fill:#d1d1d1;fill-opacity:1"
       d="m 214.37163,300.87669 c -0.89,-2.29 -1.27,-15.78 -0.4,-14.43 0.41,0.66 0.7,2.97 0.63,5.14 -0.07,2.17 0.15,5.46 0.47,7.31 0.62,3.44 0.26,4.44 -0.7,1.98 v 0" />
    <path
       id="path1953"
       style="fill:#d1d1d1;fill-opacity:1"
       d="m 207.40163,297.71669 c -0.21,-2.5 -0.62,-6.68 -0.92,-9.29 -0.41,-3.56 -0.32,-4.52 0.36,-3.85 0.51,0.49 1.1,4.6 1.35,9.28 0.46,8.78 -0.15,11.73 -0.79,3.86 v 0" />
    <path
       id="path1951"
       style="fill:#d1d1d1;fill-opacity:1"
       d="m 208.62163,305.81669 c -0.01,-1.74 0.15,-2.55 0.34,-1.79 0.2,0.75 0.21,2.18 0.02,3.16 -0.19,0.98 -0.35,0.36 -0.36,-1.37 v 0" />
    <path
       id="path1949"
       style="fill:#d1d1d1;fill-opacity:1"
       d="m 202.95163,302.84669 c 0.03,-3.15 0.33,-7.33 0.67,-9.28 0.44,-2.57 0.59,-0.99 0.53,5.72 -0.04,5.1 -0.34,9.28 -0.67,9.28 -0.32,0.01 -0.56,-2.57 -0.53,-5.72 v 0" />
    <path
       id="path1947"
       style="fill:#d1d1d1;fill-opacity:1"
       d="m 201.40163,309.95669 c 0.1,-7.31 0.47,-6.82 0.89,1.19 0.15,2.93 -0.01,5.33 -0.35,5.33 -0.35,0 -0.59,-2.93 -0.54,-6.52 v 0" />
    <path
       id="path1941"
       style="fill:#d1d1d1;fill-opacity:1"
       d="m 207.34334,313.98891 c -0.54575,-1.05785 -1.16779,-0.75371 -1.46171,1.10778 -0.15,0.98 -0.29,-3.38 -0.31,-9.68 -0.02,-6.3 0.08,-8.97 0.23,-5.93 0.15,3.05 0.58,6.25 0.96,7.12 0.38,0.86 1.07,3.35 1.52,5.53 0.0838,0.40398 0.17309,0.81593 0.26486,1.22378" />
    <path
       id="path1759"
       style="fill:#d1d1d1;fill-opacity:1"
       d="m 244.92163,142.88669 c -0.57,-0.2283 -1.25,-0.2002 -1.52,0.0624 -0.26,0.2626 0.21,0.4494 1.04,0.415 0.92,-0.0379 1.11,-0.2251 0.48,-0.4774 v 0" />
    <path
       id="path1757"
       style="fill:#d1d1d1;fill-opacity:1"
       d="m 254.65163,145.61169 c -1.8,-1.0558 -8.81,-1.5782 -7.78,-0.5802 0.6,0.5928 3.61,1.1351 7.78,1.4054 1.58,0.1024 1.58,0.1024 0,-0.8252 v 0" />
    <path
       id="path1755"
       style="fill:#d1d1d1;fill-opacity:1"
       d="m 273.22163,161.32969 c 0,-0.15 -0.8,-0.951 -1.78,-1.778 l -1.78,-1.506 1.51,1.778 c 1.41,1.671 2.05,2.138 2.05,1.506 v 0" />
    <path
       id="path1753"
       style="fill:#d1d1d1;fill-opacity:1"
       d="m 269.72163,160.19969 c -1.36,-1.303 -1.37,-1.286 -0.37,0.378 0.57,0.959 1.21,1.572 1.42,1.365 0.21,-0.208 -0.26,-0.992 -1.05,-1.743 v 0" />
    <path
       id="path1751"
       style="fill:#d1d1d1;fill-opacity:1"
       d="m 231.34163,161.60169 c 0,-0.434 -0.36,-0.79 -0.79,-0.79 -0.44,0 -0.79,0.356 -0.79,0.79 0,0.435 0.35,0.79 0.79,0.79 0.43,0 0.79,-0.355 0.79,-0.79 v 0" />
    <path
       id="path1749"
       style="fill:#d1d1d1;fill-opacity:1"
       d="m 273.88163,165.55269 c -0.96,-1.304 -2.06,-2.37 -2.44,-2.37 -0.39,0 0.06,1.066 0.99,2.37 0.93,1.304 2.03,2.371 2.45,2.371 0.41,0 -0.03,-1.067 -1,-2.371 v 0" />
    <path
       id="path1747"
       style="fill:#d1d1d1;fill-opacity:1"
       d="m 278.79162,168.91169 c -1.28,-2.206 -2.92999,-4.149 -3.52999,-4.149 -0.3,0 0.41,1.245 1.56999,2.766 2.24,2.937 3.3,3.686 1.96,1.383 v 0" />
    <path
       id="path1743"
       style="fill:#d1d1d1;fill-opacity:1"
       d="m 279.02162,176.97669 c -0.26,-0.67 -0.64,-1.05 -0.84,-0.842 -0.21,0.207 -0.14,0.755 0.14,1.219 0.78,1.261 1.24,1.016 0.7,-0.377 v 0" />
    <path
       id="path1741"
       style="fill:#d1d1d1;fill-opacity:1"
       d="m 258.20163,180.56669 c 0,-0.434 -0.37,-0.79 -0.83,-0.79 -0.46,0 -0.62,0.356 -0.35,0.79 0.27,0.435 0.64,0.791 0.84,0.791 0.19,0 0.34,-0.356 0.34,-0.791 v 0" />
    <path
       id="path1739"
       style="fill:#d1d1d1;fill-opacity:1"
       d="m 278.85162,184.30769 c -0.78,-0.775 -0.87,-0.684 -0.44,0.442 0.29,0.779 0.73,1.218 0.98,0.975 0.24,-0.244 0,-0.881 -0.54,-1.417 v 0" />
    <path
       id="path1737"
       style="fill:#d1d1d1;fill-opacity:1"
       d="m 240.18163,185.55869 c -0.57,-0.228 -1.25,-0.2 -1.52,0.063 -0.26,0.262 0.21,0.449 1.04,0.415 0.92,-0.038 1.11,-0.226 0.48,-0.478 v 0" />
    <path
       id="path1733"
       style="fill:#d1d1d1;fill-opacity:1"
       d="m 244.24163,186.29569 c -0.74,-0.543 -1.6,-0.987 -1.91,-0.987 -0.3,0 -0.72,0.444 -0.93,0.987 -0.25,0.65 0.4,0.988 1.9,0.988 2.03,0 2.13,-0.114 0.94,-0.988 v 0" />
    <path
       id="path1731"
       style="fill:#d1d1d1;fill-opacity:1"
       d="m 253.46163,187.67869 c 0,-0.434 -0.62,-0.784 -1.38,-0.778 -1.18,0.011 -1.21,0.124 -0.2,0.778 1.49,0.964 1.58,0.964 1.58,0 v 0" />
    <path
       id="path1729"
       style="fill:#d1d1d1;fill-opacity:1"
       d="m 249.96163,187.87469 c 0,-0.882 -0.65,-1.425 -1.8,-1.496 -2.31,-0.144 -2.32,0.811 -0.03,1.916 0.98,0.472 1.79,0.882 1.8,0.911 0.02,0.03 0.03,-0.569 0.03,-1.331 v 0" />
    <path
       id="path1727"
       style="fill:#d1d1d1;fill-opacity:1"
       d="m 225.41163,190.83969 c -0.27,-0.434 -1.27,-0.765 -2.22,-0.734 -1.67,0.053 -1.67,0.079 -0.15,0.734 2.17,0.935 2.95,0.935 2.37,0 v 0" />
    <path
       id="path1725"
       style="fill:#d1d1d1;fill-opacity:1"
       d="m 240.03163,191.62969 c -0.65,-0.421 -2.43,-0.736 -3.95,-0.699 -2.54,0.061 -2.6,0.12 -0.79,0.699 1.08,0.348 2.86,0.663 3.95,0.7 1.55,0.052 1.72,-0.097 0.79,-0.7 v 0" />
    <path
       id="path1723"
       style="fill:#d1d1d1;fill-opacity:1"
       d="m 231.48163,191.88069 c -0.57,-0.228 -1.25,-0.2 -1.51,0.062 -0.26,0.263 0.2,0.45 1.04,0.415 0.92,-0.038 1.11,-0.225 0.47,-0.477 v 0" />
    <path
       id="path1719"
       style="fill:#d1d1d1;fill-opacity:1"
       d="m 223.04163,192.42069 c -0.27,-0.435 -0.84,-0.791 -1.28,-0.791 -0.43,0 -0.57,0.356 -0.3,0.791 0.27,0.434 0.84,0.79 1.28,0.79 0.43,0 0.57,-0.356 0.3,-0.79 v 0" />
    <path
       id="path1717"
       style="fill:#d1d1d1;fill-opacity:1"
       d="m 276.42162,191.98569 c -0.37999,-1.282 -0.72999,-1.738 -0.75999,-1.013 -0.08,1.472 0.75999,4.036 1.18999,3.615 0.14,-0.149 -0.05,-1.32 -0.43,-2.602 v 0" />
    <path
       id="path1715"
       style="fill:#d1d1d1;fill-opacity:1"
       d="m 223.04163,194.36769 c -1.3,-0.597 -2.9,-1.073 -3.56,-1.057 -0.65,0.015 -0.12,0.517 1.19,1.114 1.3,0.597 2.9,1.072 3.55,1.057 0.66,-0.016 0.12,-0.517 -1.18,-1.114 v 0" />
    <path
       id="path1711"
       style="fill:#d1d1d1;fill-opacity:1"
       d="m 230.64163,198.53169 c -0.78,-0.775 -0.87,-0.684 -0.44,0.442 0.3,0.779 0.74,1.218 0.98,0.975 0.25,-0.244 0,-0.881 -0.54,-1.417 v 0" />
    <path
       id="path1709"
       style="fill:#d1d1d1;fill-opacity:1"
       d="m 278.74162,199.07469 c -0.7,-3.106 -1.57,-4.483 -1.57,-2.491 0,1.433 1.37,5.319 1.87,5.319 0.18,0 0.05,-1.272 -0.3,-2.828 v 0" />
    <path
       id="path1705"
       style="fill:#d1d1d1;fill-opacity:1"
       d="m 274.53163,204.07569 c -0.22,-0.543 -0.4,-0.098 -0.4,0.988 0,1.087 0.18,1.531 0.4,0.988 0.22,-0.543 0.22,-1.432 0,-1.976 v 0" />
    <path
       id="path1703"
       style="fill:#d1d1d1;fill-opacity:1"
       d="m 272.00163,204.86669 c -0.27,-1.848 -0.64,-3.507 -0.82,-3.688 -0.5,-0.496 -0.38,3.24 0.17,5.268 0.79,2.956 1.19,1.998 0.65,-1.58 v 0" />
    <path
       id="path1701"
       style="fill:#d1d1d1;fill-opacity:1"
       d="m 280.33162,206.94569 c 0,-0.651 -0.36,-0.965 -0.79,-0.697 -0.43,0.269 -0.79,1.022 -0.79,1.674 0,0.652 0.36,0.966 0.79,0.697 0.43,-0.268 0.79,-1.022 0.79,-1.674 v 0" />
    <path
       id="path1699"
       style="fill:#d1d1d1;fill-opacity:1"
       d="m 278.03162,208.94769 c -0.5,-1.264 -0.78,-1.463 -0.81,-0.59 -0.07,1.752 0.96,4.355 1.3,3.315 0.15,-0.45 -0.07,-1.676 -0.49,-2.725 v 0" />
    <path
       id="path1697"
       style="fill:#d1d1d1;fill-opacity:1"
       d="m 169.30163,203.74969 c 2.173,-1.142 8.396,-4.37 13.829,-7.175 5.437,-2.804 10.237,-5.388 10.667,-5.742 0.44,-0.353 2.39,-1.271 4.35,-2.039 1.95,-0.768 4.36,-1.911 5.35,-2.541 1.66,-1.062 1.69,-1.216 0.43,-2.14 -1.11,-0.811 -1.84,-0.766 -3.96,0.243 -1.43,0.681 -2.8,1.88 -3.05,2.665 -0.44,1.393 -9.48,6.98 -11.29,6.98 -2.033,0 -0.662,-1.44 3.98,-4.187 2.7,-1.594 5.27,-3.033 5.73,-3.198 0.46,-0.165 0.6,-0.553 0.31,-0.862 -0.78,-0.847 -9.42,4.502 -14.492,8.979 -2.104,1.855 -9.15,5.964 -19.756,11.521 -4.781,2.505 -9.226,5.075 -9.878,5.71 -1.105,1.078 8.794,-3.496 17.78,-8.214 v 0" />
    <path
       id="path1695"
       style="fill:#d1d1d1;fill-opacity:1"
       d="m 270.84163,211.58269 c -0.01,-2.458 -0.26,-3.376 -0.71,-2.659 -0.38,0.601 -0.58,1.668 -0.44,2.37 0.13,0.703 0.27,1.9 0.31,2.66 0.03,0.761 0.24,1.383 0.45,1.383 0.22,0 0.39,-1.689 0.39,-3.754 v 0" />
    <path
       id="path1693"
       style="fill:#d1d1d1;fill-opacity:1"
       d="m 163.64163,210.15469 c 2.051,-1.147 4.274,-1.877 4.938,-1.622 0.665,0.255 1.014,0.15 0.777,-0.234 -0.237,-0.384 0.129,-0.914 0.814,-1.176 1.808,-0.694 2.072,-0.598 1.401,0.509 -0.329,0.544 0.45,0.013 1.731,-1.179 2.245,-2.088 16.274,-9.156 26.264,-13.235 2.81,-1.145 4.98,-2.551 5.19,-3.359 0.2,-0.764 0.08,-1.389 -0.26,-1.389 -0.34,0 -4.12,1.818 -8.42,4.04 -4.29,2.222 -9.22,4.729 -10.961,5.57 -1.739,0.842 -4.406,2.234 -5.927,3.095 -4.735,2.68 -17.247,8.566 -19.307,9.083 -1.08,0.271 -2.378,0.991 -2.883,1.601 -0.506,0.609 -1.321,1.115 -1.811,1.125 -0.49,0.01 -1.78,0.709 -2.866,1.554 -1.703,1.324 -1.314,1.272 2.807,-0.381 2.63,-1.054 6.461,-2.856 8.513,-4.002 v 0" />
    <path
       id="path1691"
       style="fill:#d1d1d1;fill-opacity:1"
       d="m 277.12162,216.32469 c -0.03,-0.326 -0.36,-1.304 -0.73,-2.173 -0.59999,-1.401 -0.68999,-1.333 -0.73999,0.592 -0.03,1.196 0.3,2.173 0.73999,2.173 0.43,0 0.76,-0.266 0.73,-0.592 v 0" />
    <path
       id="path1689"
       style="fill:#d1d1d1;fill-opacity:1"
       d="m 264.08163,213.95369 c -0.91,-5.122 -2.57,-11.707 -2.64,-10.47 -0.16,2.627 1.84,13.433 2.48,13.433 0.38,0 0.45,-1.333 0.16,-2.963 v 0" />
    <path
       id="path1687"
       style="fill:#d1d1d1;fill-opacity:1"
       d="m 261.85163,214.76069 c -0.26,-0.263 -0.45,0.204 -0.41,1.037 0.04,0.921 0.22,1.108 0.47,0.477 0.23,-0.57 0.2,-1.252 -0.06,-1.514 v 0" />
    <path
       id="path1685"
       style="fill:#d1d1d1;fill-opacity:1"
       d="m 148.04163,213.95169 c -0.361,-0.362 -5.2,2.037 -5.2,2.578 0,0.199 1.24,-0.23 2.756,-0.952 1.516,-0.723 2.615,-1.455 2.444,-1.626 v 0" />
    <path
       id="path1683"
       style="fill:#d1d1d1;fill-opacity:1"
       d="m 229.77963,213.33469 c 1.3,-2.535 2.34,-4.988 2.32,-5.452 -0.04,-0.945 -5.4,9.017 -5.46,10.154 -0.06,1.218 0.68,0.106 3.14,-4.702 v 0" />
    <path
       id="path1681"
       style="fill:#d1d1d1;fill-opacity:1"
       d="m 140.47063,217.70769 c 0.652,-0.422 0.83,-0.766 0.396,-0.766 -0.435,0 -1.324,0.344 -1.976,0.766 -0.652,0.421 -0.83,0.766 -0.395,0.766 0.434,0 1.323,-0.345 1.975,-0.766 v 0" />
    <path
       id="path1679"
       style="fill:#d1d1d1;fill-opacity:1"
       d="m 268.64063,216.43269 c -0.69,-1.228 -0.78,-1.134 -0.67,0.673 0.07,1.16 0.42,1.8 0.8,1.428 0.37,-0.372 0.31,-1.313 -0.13,-2.101 v 0" />
    <path
       id="path1677"
       style="fill:#d1d1d1;fill-opacity:1"
       d="m 149.79063,216.91669 c 0.237,0 0.248,-0.182 0.025,-0.405 -0.451,-0.451 -6.18,1.777 -6.18,2.402 0,0.218 1.288,-0.143 2.863,-0.801 1.574,-0.657 3.055,-1.196 3.292,-1.196 v 0" />
    <path
       id="path1675"
       style="fill:#d1d1d1;fill-opacity:1"
       d="m 274.07063,215.22369 -0.84,-2.653 0.4,2.667 c 0.21,1.467 0.44,3.601 0.51,4.742 l 0.12,2.074 0.32,-2.089 c 0.17,-1.149 -0.06,-3.283 -0.51,-4.741 v 0" />
    <path
       id="path1673"
       style="fill:#d1d1d1;fill-opacity:1"
       d="m 134.79063,222.87869 c 2.309,-0.76 4.06,-1.52 3.89,-1.69 -0.401,-0.401 -10.066,2.857 -10.066,3.393 0,0.224 0.445,0.243 0.988,0.042 0.543,-0.2 2.878,-0.986 5.188,-1.745 v 0" />
    <path
       id="path1671"
       style="fill:#d1d1d1;fill-opacity:1"
       d="m 272.19063,221.85569 c -0.2,-0.76 -0.36,-0.138 -0.36,1.383 0,1.521 0.16,2.144 0.36,1.383 0.2,-0.761 0.2,-2.005 0,-2.766 v 0" />
    <path
       id="path1669"
       style="fill:#d1d1d1;fill-opacity:1"
       d="m 266.91063,224.24569 c 0,-2.531 -0.56,-2.118 -1.09,0.805 -0.23,1.245 -0.08,1.976 0.35,1.714 0.4,-0.252 0.74,-1.385 0.74,-2.519 v 0" />
    <path
       id="path1667"
       style="fill:#d1d1d1;fill-opacity:1"
       d="m 270.80063,227.78269 c -0.03,-0.543 -0.36,-1.699 -0.73,-2.568 -0.57,-1.325 -0.69,-1.165 -0.74,0.988 -0.03,1.412 0.3,2.568 0.74,2.568 0.43,0 0.76,-0.445 0.73,-0.988 v 0" />
    <path
       id="path1665"
       style="fill:#d1d1d1;fill-opacity:1"
       d="m 269.25063,229.95569 c 0,-0.435 -0.34,-0.257 -0.76,0.395 -0.42,0.652 -0.77,1.541 -0.77,1.976 0,0.434 0.35,0.257 0.77,-0.395 0.42,-0.652 0.76,-1.541 0.76,-1.976 v 0" />
    <path
       id="path1663"
       style="fill:#d1d1d1;fill-opacity:1"
       d="m 262.07063,218.49769 c -0.37,-0.671 -0.6,2.241 -0.55,6.717 l 0.1,7.902 0.55,-6.717 c 0.3,-3.694 0.25,-7.25 -0.1,-7.902 v 0" />
    <path
       id="path1661"
       style="fill:#d1d1d1;fill-opacity:1"
       d="m 267.25063,234.21269 c -0.8,-1.29 -1.92,-0.719 -1.92,0.976 0,1.396 0.19,1.514 1.17,0.701 0.65,-0.537 0.98,-1.292 0.75,-1.677 v 0" />
    <path
       id="path1659"
       style="fill:#d1d1d1;fill-opacity:1"
       d="m 215.99063,234.52769 c 1.37,-2.338 2.31,-3.251 2.69,-2.628 0.43,0.693 0.73,0.6 1.09,-0.338 0.32,-0.837 0.18,-1.1 -0.39,-0.747 -0.53,0.329 -0.74,0.109 -0.52,-0.551 0.21,-0.604 0.76,-1.098 1.23,-1.098 0.47,0 1.15,-0.324 1.51,-0.72 0.38,-0.417 0.25,-0.481 -0.33,-0.15 -1.39,0.802 -1.23,-0.121 0.46,-2.564 2.08,-2.994 2.66,-4.073 2.19,-4.073 -0.38,0 -8.04,10.605 -10.96,15.188 -1.09,1.703 -1.13,2.057 -0.22,1.706 0.64,-0.244 2.1,-2.055 3.25,-4.025 v 0" />
    <path
       id="path1657"
       style="fill:#d1d1d1;fill-opacity:1"
       d="m 264.26063,236.45969 c -0.21,-0.535 -0.38,0.094 -0.36,1.398 0.02,1.304 0.19,1.742 0.39,0.973 0.2,-0.769 0.19,-1.836 -0.03,-2.371 v 0" />
    <path
       id="path1655"
       style="fill:#d1d1d1;fill-opacity:1"
       d="m 256.50063,228.77069 c -0.02,-4.109 -0.22,-5.321 -0.66,-3.951 -0.34,1.086 -0.62,5.353 -0.61,9.482 0.02,6.233 0.13,6.904 0.65,3.951 0.35,-1.955 0.63,-6.223 0.62,-9.482 v 0" />
    <path
       id="path1653"
       style="fill:#d1d1d1;fill-opacity:1"
       d="m 262.68063,242.59169 c 1,-2.151 0.98,-2.189 -0.85,-1.488 -0.68,0.263 -1.25,1.148 -1.25,1.978 0,2.09 1.02,1.85 2.1,-0.49 v 0" />
    <path
       id="path1651"
       style="fill:#d1d1d1;fill-opacity:1"
       d="m 258.31063,245.15169 -0.42,-2.55 -0.48,2.76 c -0.51,3 -0.12,4.66 0.76,3.23 0.31,-0.49 0.37,-2.04 0.14,-3.44 v 0" />
    <path
       id="path1649"
       style="fill:#d1d1d1;fill-opacity:1"
       d="m 251.16063,246.59169 c 0.4,-0.41 0.73,-1.58 0.73,-2.59 0,-1.02 0.54,-2.05 1.19,-2.3 0.9,-0.347 1.18,-1.806 1.18,-6.036 0,-6.819 -0.93,-6.508 -1.16,0.387 -0.1,3.079 -0.49,4.898 -1.02,4.788 -0.47,-0.098 -1.09,0.881 -1.38,2.181 -0.28,1.3 -0.75,2.21 -1.05,2.03 -0.29,-0.18 -0.36,1.51 -0.15,3.75 0.31,3.48 0.4,3.67 0.64,1.3 0.16,-1.52 0.61,-3.1 1.02,-3.51 v 0" />
    <path
       id="path1647"
       style="fill:#d1d1d1;fill-opacity:1"
       d="m 257.41063,251.49169 c 0.01,-0.33 -0.34,-0.6 -0.78,-0.6 -0.43,0 -0.78,0.8 -0.77,1.78 0.01,1.44 0.15,1.55 0.77,0.6 0.42,-0.66 0.77,-1.46 0.78,-1.78 v 0" />
    <path
       id="path1645"
       style="fill:#d1d1d1;fill-opacity:1"
       d="m 203.09063,255.49169 c 1.88,-4.45 1.31,-4.61 -0.82,-0.23 -0.95,1.94 -1.46,3.53 -1.14,3.53 0.32,-0.01 1.2,-1.49 1.96,-3.3 v 0" />
    <path
       id="path1643"
       style="fill:#d1d1d1;fill-opacity:1"
       d="m 250.77063,257.81169 c -0.75,-3.66 -0.88,-3.85 -1.1,-1.62 -0.2,2.11 0.89,5.77 1.72,5.77 0.12,0 -0.15,-1.87 -0.62,-4.15 v 0" />
    <path
       id="path1641"
       style="fill:#d1d1d1;fill-opacity:1"
       d="m 261.53063,263.30169 c -1.39,-1.43 -2.53,-2.99 -2.53,-3.46 0,-0.47 -0.53,-1.29 -1.18,-1.83 -1.66,-1.38 -1.47,-0.1 0.47,3.16 1.73,2.91 3.65,4.74 4.97,4.74 0.44,0 -0.34,-1.17 -1.73,-2.61 v 0" />
    <path
       id="path1639"
       style="fill:#d1d1d1;fill-opacity:1"
       d="m 258.21063,263.31169 c -0.85,-1.43 -2.05,-4.72 -2.68,-7.31 -1.08,-4.48 -1.79,-3.84 -1.34,1.22 0.21,2.3 3.75,8.69 4.82,8.69 0.4,0 0.04,-1.17 -0.8,-2.6 v 0" />
  </g>
</svg>
