<?xml version="1.0" encoding="UTF-8" standalone="no"?>
<!-- Generator: Adobe Illustrator 19.0.0, SVG Export Plug-In . SVG Version: 6.00 Build 0)  -->

<svg
   version="1.1"
   id="Layer_1"
   x="0px"
   y="0px"
   viewBox="0 0 32 32"
   xml:space="preserve"
   sodipodi:docname="microphone.svg"
   width="32"
   height="32"
   inkscape:version="1.1.1 (3bf5ae0d25, 2021-09-20)"
   xmlns:inkscape="http://www.inkscape.org/namespaces/inkscape"
   xmlns:sodipodi="http://sodipodi.sourceforge.net/DTD/sodipodi-0.dtd"
   xmlns="http://www.w3.org/2000/svg"
   xmlns:svg="http://www.w3.org/2000/svg"><defs
   id="defs41" /><sodipodi:namedview
   id="namedview39"
   pagecolor="#505050"
   bordercolor="#ffffff"
   borderopacity="1"
   inkscape:pageshadow="0"
   inkscape:pageopacity="0"
   inkscape:pagecheckerboard="1"
   showgrid="false"
   inkscape:zoom="14.178723"
   inkscape:cx="18.866297"
   inkscape:cy="11.566627"
   inkscape:window-width="1920"
   inkscape:window-height="1011"
   inkscape:window-x="0"
   inkscape:window-y="32"
   inkscape:window-maximized="1"
   inkscape:current-layer="Layer_1" />
<g
   id="g6"
   transform="matrix(0.06751603,0,0,0.06751603,0.13373295,0.10537765)"
   style="fill:#ffffff;fill-opacity:1">
	<path
   d="m 235,302.296 c 47.177,0 85.423,-38.245 85.423,-85.423 V 85.423 C 320.423,38.245 282.177,0 235,0 187.823,0 149.577,38.245 149.577,85.423 v 131.451 c 0,47.177 38.246,85.422 85.423,85.422 z"
   id="path2"
   style="fill:#ffffff;fill-opacity:1" />
	<path
   d="m 350.423,136.148 v 30 h 15 v 50.726 c 0,71.915 -58.508,130.423 -130.423,130.423 -71.915,0 -130.423,-58.507 -130.423,-130.423 v -50.726 h 15 v -30 h -45 v 80.726 C 74.577,300.273 138.551,369 220,376.589 V 440 h -90.444 v 30 H 340.445 V 440 H 250 V 376.589 C 331.449,369 395.423,300.272 395.423,216.873 v -80.726 h -45 z"
   id="path4"
   style="fill:#ffffff;fill-opacity:1" />
</g>
<g
   id="g8">
</g>
<g
   id="g10">
</g>
<g
   id="g12">
</g>
<g
   id="g14">
</g>
<g
   id="g16">
</g>
<g
   id="g18">
</g>
<g
   id="g20">
</g>
<g
   id="g22">
</g>
<g
   id="g24">
</g>
<g
   id="g26">
</g>
<g
   id="g28">
</g>
<g
   id="g30">
</g>
<g
   id="g32">
</g>
<g
   id="g34">
</g>
<g
   id="g36">
</g>
</svg>
